<svg id="Logo" xmlns="http://www.w3.org/2000/svg" viewBox="0 0 104.76 19.91"><defs><style>.cls-1{fill:#b16159;}.cls-2{fill:#6163aa;}</style></defs><title>Logo-ADN</title><path class="cls-1" d="M9.67,10.89h-4L5,13.13H1.92l4.4-12H9l4.43,12h-3.1ZM6.4,8.66H9L7.68,4.5Z"/><path class="cls-1" d="M14.35,13.13v-12h3.86a5.71,5.71,0,0,1,2.86.72,5.09,5.09,0,0,1,2,2,6.27,6.27,0,0,1,.72,2.94v.56a6.09,6.09,0,0,1-.7,3,5,5,0,0,1-2,2,5.6,5.6,0,0,1-2.82.75Zm2.89-9.76V10.9h1A2.24,2.24,0,0,0,20.15,10a4.3,4.3,0,0,0,.67-2.63V6.87a4.27,4.27,0,0,0-.67-2.62,2.27,2.27,0,0,0-1.94-.88Z"/><path class="cls-1" d="M35.27,13.13H32.39L28.14,5.67v7.46H25.25v-12h2.89L32.38,8.6V1.14h2.89Z"/><path class="cls-1" d="M41.27,13.13v-12h3.86A5.68,5.68,0,0,1,48,1.86a5,5,0,0,1,2,2,6,6,0,0,1,.72,2.94v.56a6.2,6.2,0,0,1-.69,3,5.13,5.13,0,0,1-2,2,5.63,5.63,0,0,1-2.82.75Zm2.89-9.76V10.9h1A2.25,2.25,0,0,0,47.08,10a4.37,4.37,0,0,0,.67-2.63V6.87a4.34,4.34,0,0,0-.67-2.62,2.29,2.29,0,0,0-1.95-.88Z"/><path class="cls-1" d="M61.58,1.14V9A4.66,4.66,0,0,1,61,11.3a3.69,3.69,0,0,1-1.64,1.48,5.71,5.71,0,0,1-2.51.51,5,5,0,0,1-3.45-1.13A4,4,0,0,1,52.14,9V1.14H55v8c0,1.31.65,2,1.83,2a1.77,1.77,0,0,0,1.36-.5A2.27,2.27,0,0,0,58.69,9V1.14Z"/><path class="cls-2" d="M76.88,8.66l1.37-7.52h2.87l-2.54,12h-3L74,6.29,72.4,13.13h-3l-2.56-12h2.88L71.1,8.66l1.65-7.52h2.46Z"/><path class="cls-2" d="M89.69,8H85.14V10.9h5.37v2.23H82.25v-12h8.28V3.37H85.14V5.9h4.55Z"/><path class="cls-2" d="M91.69,13.13v-12H96A6.16,6.16,0,0,1,99.52,2a2.84,2.84,0,0,1,1.2,2.47A2.9,2.9,0,0,1,100.3,6,2.53,2.53,0,0,1,99,7a2.53,2.53,0,0,1,1.44.92,2.72,2.72,0,0,1,.5,1.65,3.17,3.17,0,0,1-1.12,2.65,5.28,5.28,0,0,1-3.3.9Zm2.89-7h1.51a2.15,2.15,0,0,0,1.35-.34,1.23,1.23,0,0,0,.4-1,1.29,1.29,0,0,0-.44-1.1A2.35,2.35,0,0,0,96,3.36H94.58Zm0,1.9V10.9h1.89a1.86,1.86,0,0,0,1.21-.35,1.26,1.26,0,0,0,.42-1A1.33,1.33,0,0,0,96.61,8Z"/></svg>